<?xml version="1.0" standalone="no"?>
<!DOCTYPE svg PUBLIC "-//W3C//DTD SVG 20010904//EN"
 "http://www.w3.org/TR/2001/REC-SVG-20010904/DTD/svg10.dtd">
<svg version="1.0" xmlns="http://www.w3.org/2000/svg"
 width="260.000000pt" height="260.000000pt" viewBox="0 0 260.000000 260.000000"
 preserveAspectRatio="xMidYMid meet">
<metadata>
Created by potrace 1.11, written by Peter Selinger 2001-2013
</metadata>
<g transform="translate(0.000000,260.000000) scale(0.100000,-0.100000)"
fill="#000000" stroke="none">
<path d="M792 2580 c-103 -27 -187 -75 -262 -150 -75 -74 -110 -133 -147 -240
-22 -62 -26 -94 -27 -190 -1 -128 3 -160 31 -241 44 -128 145 -250 256 -310
34 -18 101 -45 150 -60 147 -46 220 -109 274 -240 37 -90 40 -218 8 -345 -30
-117 -31 -251 -3 -361 50 -199 201 -357 398 -418 69 -21 230 -28 306 -14 219
42 399 216 458 442 14 55 17 274 4 317 -3 8 -13 41 -22 73 -10 32 -40 91 -67
132 -76 113 -178 189 -302 224 -92 27 -147 53 -192 92 -125 110 -173 312 -123
517 22 89 25 220 8 313 -11 59 -78 217 -104 245 -108 119 -179 168 -293 205
-96 30 -253 34 -351 9z m298 -183 c215 -78 304 -293 240 -582 -55 -247 10
-490 172 -645 54 -52 175 -118 231 -127 55 -8 152 -60 198 -107 78 -77 115
-175 118 -307 4 -193 -76 -339 -227 -411 -63 -31 -74 -33 -172 -32 -96 0 -111
3 -170 31 -189 89 -271 306 -208 553 28 113 30 297 4 385 -59 192 -184 327
-357 385 -35 12 -72 24 -81 25 -87 17 -194 107 -237 199 -39 83 -51 145 -46
251 5 118 39 208 108 282 48 53 110 90 175 108 72 19 188 15 252 -8z"/>
</g>
</svg>
