<svg width="640" height="144"
	xmlns="http://www.w3.org/2000/svg">
	<g fill="none" fill-rule="evenodd">
		<path d="M12.52 5.02 45.93 90.8 79.48 5H86v94.84h-5.6V17.02L48.07 99.85h-4.12L11.59 17.02v82.83H6V5.02h6.52Zm94.48 0v94.83h-5.5V5.02h5.5Zm44.33 0c17.13 0 29.37 11.4 34.67 27.83l-4.24 6.73c-3.65-17.08-14.68-29.44-30.43-29.44H127.6v84.58h19.41l-3.23 5.13H122V5.02h29.33Zm76.58 0c16.99 0 29.18 11.15 34.59 27.28l-4.21 6.66c-3.79-16.76-14.77-28.82-30.38-28.82h-23.8v84.58h18.95l-3.24 5.13H198.5V5.02h29.41Zm103.42 0v5.12h-50.72v37.5h38.57v5.13h-38.57v41.95H334v5.13h-59V5.02h56.33Zm17.77 0v89.7H397v5.13h-53.5V5.02h5.6Zm59.02 0v43.16h53.76V5.02h5.62v94.83h-5.62V53.3h-53.76v46.54h-5.62V5.02h5.62Zm105.5 0L547 99.85h-5.85l-9.57-27.39h-42.16l-9.57 27.39H474l33.37-94.83h6.25Zm46.9 0 33.41 85.79L627.48 5H634v94.84h-5.59V17.02l-32.35 82.83h-4.12l-32.35-82.83v82.83H554V5.02h6.52Zm-49.84 6.52L491 67.24h39.5l-19.82-55.7Z" fill="#264E78"/>
		<g fill="#8C8C8C" fill-rule="nonzero">
			<path d="m12.13 133.2.66 3.33.81-3.17 4.63-15.78h1.62l4.57 15.78.8 3.2.7-3.35 3.85-15.63h1.84l-5.46 21.4h-1.73l-4.83-16.74-.54-2.11-.53 2.1L13.57 139h-1.73L6.4 117.58h1.85zM56.86 128.73H46.9v8.73h11.47v1.53H45.1v-21.41h13.2v1.55h-11.4v8.07h9.97zM72.16 138.98v-21.4h6.3c2.28 0 4.01.47 5.2 1.42 1.18.94 1.77 2.34 1.77 4.18a4.75 4.75 0 0 1-3.37 4.65 5.14 5.14 0 0 1 4.13 5.13c0 1.89-.6 3.36-1.83 4.43-1.21 1.06-2.9 1.6-5.07 1.6h-7.13Zm1.8-10.29v8.76h5.4c1.55 0 2.77-.4 3.67-1.18A4.13 4.13 0 0 0 84.4 133c0-1.33-.44-2.37-1.3-3.14a5.2 5.2 0 0 0-3.58-1.16h-5.55Zm0-1.51h4.92a5.52 5.52 0 0 0 3.5-1.07c.82-.68 1.23-1.67 1.23-2.97 0-1.38-.43-2.39-1.28-3.04-.86-.65-2.15-.98-3.88-.98h-4.5v8.06ZM100.54 138.98v-21.4h5.96c1.75 0 3.32.4 4.7 1.2a8.27 8.27 0 0 1 3.25 3.43 10.84 10.84 0 0 1 1.16 5.09v1.97c0 1.9-.38 3.6-1.15 5.08a8.25 8.25 0 0 1-3.26 3.43c-1.4.8-3.01 1.2-4.83 1.2h-5.83Zm1.8-19.86v18.33h4.04c2.25 0 4.05-.74 5.4-2.24 1.37-1.5 2.05-3.51 2.05-6.06v-1.88c0-2.46-.67-4.43-2.01-5.91a6.83 6.83 0 0 0-5.29-2.24h-4.19ZM141.96 128.73h-9.98v8.73h11.47v1.53h-13.27v-21.41h13.2v1.55h-11.4v8.07h9.98zM169.32 133.72c0-1.19-.42-2.12-1.25-2.81-.83-.7-2.35-1.35-4.55-1.97-2.2-.63-3.82-1.3-4.84-2.04a4.81 4.81 0 0 1-2.16-4.09 4.8 4.8 0 0 1 2.01-3.99 8.25 8.25 0 0 1 5.15-1.53c1.41 0 2.68.27 3.8.82a6.04 6.04 0 0 1 3.52 5.57h-1.81c0-1.46-.5-2.63-1.5-3.52a5.81 5.81 0 0 0-4.01-1.33c-1.63 0-2.93.36-3.9 1.1a3.42 3.42 0 0 0-1.45 2.85c0 1.1.44 1.98 1.3 2.66.87.69 2.27 1.3 4.18 1.82 1.91.52 3.36 1.07 4.35 1.63a6.2 6.2 0 0 1 2.23 2.02c.5.79.74 1.71.74 2.78 0 1.69-.67 3.04-2 4.06-1.35 1.02-3.12 1.53-5.32 1.53-1.5 0-2.88-.27-4.14-.81a5.86 5.86 0 0 1-3.83-5.6h1.8c0 1.5.57 2.7 1.69 3.57a7.11 7.11 0 0 0 4.48 1.3c1.66 0 3-.36 4-1.1 1-.73 1.5-1.7 1.5-2.92ZM187.21 138.99h-1.8v-21.41h1.8zM218.4 136.44c-.63.9-1.6 1.59-2.94 2.09-1.33.5-2.83.75-4.48.75-1.67 0-3.15-.4-4.45-1.2a8.01 8.01 0 0 1-3.02-3.42 11.59 11.59 0 0 1-1.08-5.06v-2.7c0-2.97.75-5.31 2.24-7.03a7.57 7.57 0 0 1 6.02-2.58c2.2 0 3.97.56 5.3 1.68a6.95 6.95 0 0 1 2.4 4.64h-1.81a5.53 5.53 0 0 0-1.91-3.57 6.15 6.15 0 0 0-3.96-1.21c-2 0-3.57.71-4.74 2.13-1.16 1.42-1.74 3.43-1.74 6.01v2.53c0 1.63.28 3.07.83 4.32a6.26 6.26 0 0 0 5.93 3.93c1.55 0 2.88-.25 4-.74a4.3 4.3 0 0 0 1.6-1.13v-5.53h-5.72v-1.52h7.53v7.61ZM249.38 138.99h-1.8l-12.26-18.32v18.32h-1.82v-21.41h1.82l12.28 18.33v-18.33h1.78zM285.32 127.31a13.95 13.95 0 0 1-1.85-2.75 5.55 5.55 0 0 1-.58-2.4c0-1.5.45-2.7 1.34-3.57a4.88 4.88 0 0 1 3.57-1.3c1.36 0 2.46.4 3.3 1.18.84.79 1.26 1.79 1.26 3 0 1.42-.82 2.8-2.44 4.17l-2.34 1.82 5.86 6.85a9.13 9.13 0 0 0 1.33-4.9h1.63c0 2.43-.63 4.49-1.88 6.16l2.92 3.41h-2.11l-1.85-2.14a8.5 8.5 0 0 1-5.87 2.44c-2.03 0-3.64-.53-4.83-1.57a5.28 5.28 0 0 1-1.8-4.18c0-1.04.31-2.02.92-2.95.61-.92 1.69-1.97 3.22-3.12l.2-.15Zm2.29 10.48c.89 0 1.75-.19 2.58-.56a7.18 7.18 0 0 0 2.25-1.61l-5.96-6.94-.2-.22-.68.51c-1.91 1.57-2.87 3.09-2.87 4.56 0 1.28.44 2.31 1.32 3.1a5.17 5.17 0 0 0 3.56 1.16Zm-2.96-15.7c0 1.2.66 2.61 1.98 4.24l1.92-1.47a6.97 6.97 0 0 0 1.53-1.49c.4-.54.6-1.17.6-1.9 0-.76-.26-1.4-.79-1.91a2.9 2.9 0 0 0-2.1-.77c-.96 0-1.72.3-2.29.92a3.38 3.38 0 0 0-.85 2.38ZM327.85 138.98v-21.4h5.97c1.74 0 3.31.4 4.7 1.2a8.27 8.27 0 0 1 3.24 3.43 10.84 10.84 0 0 1 1.17 5.09v1.97c0 1.9-.39 3.6-1.16 5.08a8.25 8.25 0 0 1-3.26 3.43c-1.4.8-3.01 1.2-4.83 1.2h-5.83Zm1.8-19.86v18.33h4.05c2.24 0 4.05-.74 5.4-2.24 1.36-1.5 2.04-3.51 2.04-6.06v-1.88c0-2.46-.67-4.43-2-5.91a6.83 6.83 0 0 0-5.3-2.24h-4.18ZM369.27 128.73h-9.97v8.73h11.47v1.53H357.5v-21.41h13.2v1.55H359.3v8.07h9.97zM391 136.34l.11.46.13-.46 6.71-18.76h1.98l-7.94 21.4h-1.73l-7.94-21.4h1.96zM424.84 128.73h-9.98v8.73h11.47v1.53h-13.27v-21.41h13.2v1.55h-11.4v8.07h9.98zM441.94 137.46h10.53v1.53h-12.34v-21.41h1.81zM480.74 129.44c0 1.97-.34 3.7-1.01 5.2a7.79 7.79 0 0 1-2.91 3.43 7.94 7.94 0 0 1-4.37 1.2c-2.49 0-4.5-.89-6.03-2.68-1.54-1.78-2.3-4.2-2.3-7.24v-2.2c0-1.95.34-3.68 1.03-5.18a7.9 7.9 0 0 1 2.92-3.47 7.88 7.88 0 0 1 4.35-1.21c1.64 0 3.1.4 4.35 1.19a7.81 7.81 0 0 1 2.9 3.36 12.15 12.15 0 0 1 1.07 5.04v2.56Zm-1.8-2.32c0-2.58-.58-4.6-1.74-6.06a5.77 5.77 0 0 0-4.78-2.19c-1.98 0-3.56.74-4.73 2.2-1.18 1.47-1.77 3.51-1.77 6.14v2.23c0 2.54.59 4.55 1.76 6.04a5.76 5.76 0 0 0 4.77 2.22c2.04 0 3.64-.73 4.78-2.2 1.14-1.46 1.71-3.5 1.71-6.12v-2.26ZM497.09 130.27v8.71h-1.8v-21.4h7.26c2.22 0 3.97.57 5.25 1.7a5.94 5.94 0 0 1 1.93 4.7c0 2-.62 3.55-1.85 4.65-1.24 1.09-3.03 1.64-5.37 1.64h-5.42Zm0-1.53h5.46c1.75 0 3.08-.42 4-1.25.92-.84 1.38-2 1.38-3.49 0-1.48-.46-2.65-1.37-3.53-.92-.88-2.21-1.33-3.9-1.35h-5.57v9.62ZM526.14 117.58l7.87 18.89 7.9-18.9h2.4V139h-1.8v-9.32l.14-9.56-7.94 18.88h-1.39l-7.9-18.8.14 9.42v9.38h-1.8v-21.41zM571.5 128.73h-9.99v8.73h11.47v1.53h-13.27v-21.41h13.2v1.55h-11.4v8.07h9.98zM602.65 138.99h-1.8l-12.26-18.32v18.32h-1.8v-21.41h1.8l12.28 18.33v-18.33h1.78zM632.12 119.13h-7.3v19.86h-1.8v-19.86h-7.3v-1.55h16.4z"/>
		</g>
	</g>
</svg>
