<svg xmlns="http://www.w3.org/2000/svg" viewBox="0 0 240 54"><g fill="none" fill-rule="evenodd"><path fill="#FFF" d="M91.6799.434c7.3735 0 12.5848 5.2147 12.5848 12.586 0 1.3388-.1808 2.6042-.5212 3.775-.3761 1.2127-.5442 2.5726-.4181 4.0481.3824 4.4476 2.946 7.573 6.638 8.4075 5.6316 1.2968 9.2038 5.9735 9.1683 12.0836-.038 7.264-5.283 12.5208-12.545 12.4811-7.3715-.0444-12.5576-5.2885-12.5134-12.6619.0063-1.402.2122-2.7198.5946-3.9368.2816-.9542.4896-2.0262.496-3.1296.0273-4.6136-2.4565-7.9997-6.3313-8.9918l-.063-.0126c-5.7409-1.1287-9.5653-5.8453-9.5653-12.0984 0-1.3515.1787-2.6357.5212-3.8275C81.2153 3.9377 85.7689.434 91.6799.434Zm-8.7176 28.2097c2.733 0 4.3934.5568 5.7221 1.8916 1.1461 1.1872 1.8094 2.7814 1.8094 4.4874 0 2.3745-1.1062 4.266-3.1003 5.4512 3.138 1.0417 4.6137 2.9311 4.6137 5.934 0 2.2247-.8123 4.0066-2.4349 5.3415-1.4777 1.223-2.88 1.6321-5.5373 1.6321h-8.0856V28.6437h7.013Zm52.8786 0v3.2644h-10.0327v7.4924h9.8488v3.2622h-9.8488v7.4545h10.0327v3.2643h-13.671V28.6437h13.671Zm-77.0642 0V40.067l10.2018-11.4232h4.399l-10.866 11.942 11.0509 12.7958h-4.7689L58.7767 41.4017v11.9798h-3.6592V28.6437h3.6592Zm83.9783 0V40.067l10.2018-11.4232h4.401l-10.868 11.942 11.0509 12.7958h-4.7689L142.755 41.4017v11.9798h-3.6592V28.6437h3.6592ZM91.7513 3.5973c-5.249 0-8.8423 3.8506-8.8423 9.3512 0 4.6556 2.5468 8.0438 6.4846 8.9834.0021-.0021.0715.0168.0715.0147 5.6861 1.1917 9.437 5.8978 9.4034 12.1235-.0105 1.5323-.2858 2.8691-.727 4.29-.2312.8785-.3615 1.8328-.3657 2.8522-.0315 5.5741 3.505 9.4037 8.754 9.4375 5.2492.0272 8.8676-3.8003 8.9014-9.3009.023-4.5694-2.4125-7.9366-6.2221-8.9644l-.1745-.0358c-5.2974-1.0866-8.8927-5.2988-9.4034-11.226-.1533-1.8077.0379-3.5144.517-5.0613.269-.9438.414-1.9695.414-3.0772 0-5.5741-3.5618-9.387-8.8109-9.387ZM83.59 42.2557h-3.9862v8.0492h4.0974c2.9534 0 4.6516-1.4488 4.6516-3.9329 0-2.522-1.8094-4.1163-4.7628-4.1163Zm-.8103-10.5332h-3.1759v7.678h3.0647c2.5461 0 4.1708-1.5605 4.1708-3.9687 0-2.3365-1.5134-3.7093-4.0596-3.7093ZM62.2417-.0017c4.9885 0 8.0942 2.66 8.1677 6.9839h-3.3999c-.1849-2.4015-2.032-3.9164-4.8035-3.9164-2.5888 0-4.1038 1.2922-4.1038 3.5109 0 1.8468.7039 2.6599 3.1414 3.473l3.881 1.3656c3.9169 1.33 5.6168 3.3638 5.6168 6.6141 0 4.5089-3.362 7.5764-8.277 7.5764-3.549 0-5.9865-1.2565-7.5772-3.9164-.8132-1.3677-.996-1.996-1.0717-3.6222h3.6227c.1113 2.8091 2.032 4.471 5.0998 4.471 2.7338 0 4.3244-1.4413 4.3244-3.9898 0-1.9225-.9624-3.2524-2.8094-3.8428l-4.9149-1.5905c-1.8848-.6282-3.03-1.3657-3.7697-2.475-.7018-1.0716-1.1095-2.475-1.1095-3.8428 0-3.9542 3.2906-6.799 7.9828-6.799Zm48.8115.4357 14.1962 17.9133V.434h3.4305v24.7378h-2.7658L111.4957 6.4803v18.6915h-3.4306V.434h2.9881Zm-34.0188 0v24.7378h-3.689V.434h3.689Zm66.613 0 9.3363 24.7378h-4.0025l-2.1487-6.118h-10.5224l-2.037 6.118h-4.0742L139.609.434h4.0383Zm21.7052 0v3.2646H159.36v21.4732h-3.646V3.6986h-5.7683V.434h15.407Zm-23.7802 3.969-4.15 11.5717h8.3357L141.5724 4.403ZM43.5799-.0017c4.9884 0 8.0941 2.66 8.1677 6.9839h-3.4c-.1848-2.4015-2.0319-3.9164-4.8035-3.9164-2.5887 0-4.1038 1.2922-4.1038 3.5109 0 1.8468.704 2.6599 3.1415 3.473l3.881 1.3656c3.9168 1.33 5.6168 3.3638 5.6168 6.6141 0 4.5089-3.362 7.5764-8.277 7.5764-3.549 0-5.9866-1.2565-7.5772-3.9164-.8132-1.3677-.9981-1.996-1.0717-3.6222h3.6226c.1114 2.8091 2.032 4.471 5.0998 4.471 2.7338 0 4.3245-1.4413 4.3245-3.9898 0-1.9225-.9624-3.2524-2.8094-3.8428l-4.915-1.5905c-1.8848-.6282-3.03-1.3657-3.7696-2.475-.7019-1.0716-1.1095-2.475-1.1095-3.8428 0-3.9542 3.2906-6.799 7.9828-6.799ZM7.4962.434c2.718 0 4.4083.5926 5.9877 2.1131 1.6547 1.5965 2.574 3.8214 2.574 6.2699 0 5.0066-3.6395 8.4927-8.8187 8.4927H3.7105v7.862H0V.434h7.4962Zm18.5381 0 9.3364 24.7378h-4.0004l-2.1487-6.118H18.6992l-2.037 6.118h-4.0763L21.996.434h4.0383Zm-2.075 3.969-4.15 11.5717h8.3358L23.9593 4.403Zm-16.39-.89H3.7105v10.7176h3.8588c2.9396 0 4.8867-2.1131 4.8867-5.266 0-3.3005-1.9471-5.4516-4.8867-5.4516ZM167.0886.434h13.6709v3.2646h-10.0327v7.491h9.8488v3.2646h-9.8488v7.455h10.0327v3.2626h-13.6709V.434ZM-.217 28.6437h7.013c2.733 0 4.3933.5568 5.722 1.8916 1.1461 1.1872 1.8094 2.7814 1.8094 4.4874 0 2.3745-1.1062 4.266-3.1003 5.4512 3.1381 1.0417 4.6138 2.9311 4.6138 5.934 0 2.2247-.8124 4.0066-2.435 5.3415-1.4777 1.223-2.8799 1.6321-5.5394 1.6321H-.217V28.6437Zm3.6545 10.7568H6.502c2.5462 0 4.1709-1.5605 4.1709-3.9687 0-2.3365-1.5135-3.7093-4.0617-3.7093H3.4375v7.678Zm0 10.9044h4.0974c2.9533 0 4.6515-1.4488 4.6515-3.9329 0-2.522-1.8094-4.1163-4.7628-4.1163H3.4375v8.0492Zm18.0239-21.6612V44.266c0 3.776 2.5552 6.4029 6.2606 6.4029 3.7792 0 6.187-2.5174 6.187-6.403v-15.622h3.6317v15.622c0 3.0353-.8153 5.037-2.8523 6.9229-1.9633 1.8501-4.114 2.6268-7.0759 2.6268-5.8541 0-9.8187-3.8497-9.8187-9.5138v-15.658h3.6676Zm18.4663 0h3.6443v21.3997h8.7246v3.3381h-12.369V28.6437Z"/><path fill="#DBE9D6" d="M209.9457 28.4267c7.011 0 12.6944 5.6835 12.6944 12.6944 0 7.011-5.6834 12.6944-12.6944 12.6944-7.0109 0-12.6943-5.6834-12.6943-12.6944 0-7.0109 5.6834-12.6944 12.6943-12.6944Zm0 3.3407c-5.1659 0-9.3537 4.1878-9.3537 9.3537 0 5.166 4.1878 9.3538 9.3537 9.3538 5.166 0 9.3538-4.1878 9.3538-9.3538 0-5.1659-4.1878-9.3537-9.3538-9.3537Zm-36.607 3.6213c-.185-2.3199-2.032-3.7833-4.8036-3.7833-2.5888 0-4.1038 1.2483-4.1038 3.3916 0 1.7841.704 2.5696 3.1414 3.355l3.881 1.3194c3.9169 1.2848 5.6168 3.2495 5.6168 6.3894 0 4.3557-3.362 7.319-8.277 7.319-3.549 0-5.9865-1.2137-7.5772-3.7833-.8132-1.3213-.998-1.9282-1.0716-3.4992h3.6226c.1113 2.7137 2.032 4.3192 5.0998 4.3192 2.7338 0 4.3244-1.3923 4.3244-3.8544 0-1.8571-.9623-3.142-2.8094-3.7122l-4.9149-1.5365c-1.8848-.6069-3.03-1.3193-3.7697-2.391-.7018-1.0351-1.1095-2.391-1.1095-3.7123 0-3.8198 3.2906-6.568 7.9828-6.568 4.9885 0 8.0942 2.5695 8.1677 6.7466h-3.3999Zm5.0338-6.745h3.6382v10.7556h10.4778V28.6437h3.494v24.7378h-3.494V42.664h-10.4778v10.7176h-3.6382V28.6437Zm45.5696 0h7.4962c2.7181 0 4.4083.5927 5.9878 2.1132C239.0807 32.3534 240 34.5783 240 37.0268c0 5.0066-3.6395 8.4926-8.8187 8.4926h-3.5287v7.8621h-3.7105V28.6437Zm3.7105 13.7967h3.8588c2.9396 0 4.8868-2.1132 4.8868-5.266 0-3.3005-1.9472-5.4516-4.8868-5.4516h-3.8588v10.7176Z"/></g></svg>