<svg width="320px" height="95.1592176px" viewBox="0 0 320 95.1592176" version="1.1" xmlns="http://www.w3.org/2000/svg" xmlns:xlink="http://www.w3.org/1999/xlink">
    <g id="Page-1" stroke="none" stroke-width="1" fill="none" fill-rule="evenodd">
        <g id="Group" fill="#000000" fill-rule="nonzero">
            <path d="M162.490754,0.770398367 C175.528469,0.770398367 184.743014,9.99095463 184.743014,23.0247795 C184.743014,25.392026 184.423326,27.6294878 183.821435,29.6996792 C183.156421,31.8439576 182.859189,34.2485129 183.082157,36.8574704 C183.758311,44.7216517 188.291231,50.2479383 194.819372,51.723489 C204.777084,54.0164718 211.093396,62.2857443 211.031089,73.0895337 C210.963434,85.9336323 201.689302,95.2286291 188.84874,95.1588271 C175.814562,95.0799247 166.644575,85.8073838 166.722729,72.7698458 C166.733869,70.2908499 167.097938,67.9607352 167.774092,65.8088536 C168.272013,64.1216512 168.639796,62.2261564 168.651112,60.2751407 C168.699384,52.1174407 164.307565,46.1301882 157.4562,44.3759715 L157.344804,44.3536923 C147.193829,42.3579415 140.431581,34.0181184 140.431581,22.9614784 C140.431581,20.5717759 140.747556,18.3010722 141.353159,16.1937489 C143.987402,6.96558945 152.039011,0.770398367 162.490754,0.770398367 Z M147.076422,50.6503773 C151.908872,50.6503773 154.844767,51.6349029 157.194155,53.9950767 C159.220672,56.0942664 160.39351,58.9131075 160.39351,61.9296317 C160.39351,66.1281879 158.437543,69.4727105 154.911605,71.5683638 C160.46017,73.4102826 163.069481,76.751092 163.069481,82.0607758 C163.069481,85.9944578 161.633184,89.1451874 158.764127,91.505538 C156.151279,93.6680287 153.671753,94.3913934 148.973154,94.3913934 L134.676314,94.3913934 L134.676314,50.6503773 L147.076598,50.6503773 L147.076422,50.6503773 Z M240.575589,50.6503773 L240.575589,56.4224416 L222.835915,56.4224416 L222.835915,69.6703937 L240.250419,69.6703937 L240.250419,75.438568 L222.835915,75.438568 L222.835915,88.6195058 L240.575589,88.6195058 L240.575589,94.3913934 L216.402726,94.3913934 L216.402726,50.6503773 L240.575589,50.6503773 Z M104.311797,50.6503773 L104.311797,70.8488892 L122.350471,50.6503773 L130.128718,50.6503773 L110.915616,71.7662238 L130.455656,94.3915702 L122.023357,94.3915702 L104.311797,73.2088862 L104.311797,94.3915702 L97.8416535,94.3915702 L97.8416535,50.6503773 L104.311797,50.6503773 L104.311797,50.6503773 Z M252.800999,50.6503773 L252.800999,70.8488892 L270.839673,50.6503773 L278.621456,50.6503773 L259.404818,71.7662238 L278.944857,94.3915702 L270.512558,94.3915702 L252.800999,73.2088862 L252.800999,94.3915702 L246.330855,94.3915702 L246.330855,50.6503773 L252.800999,50.6503773 Z M162.617003,6.36352234 C153.335798,6.36352234 146.982177,13.1722737 146.982177,22.8983542 C146.982177,31.130318 151.485392,37.1212837 158.448152,38.7826707 C158.451865,38.7789575 158.574577,38.8123762 158.574577,38.808663 C168.628656,40.9158095 175.260943,49.2370667 175.201532,60.2452584 C175.182966,62.9546488 174.696184,65.318359 173.916061,67.8307736 C173.507256,69.3841245 173.276862,71.0715038 173.269436,72.8739919 C173.213738,82.730034 179.466925,89.5014767 188.74813,89.5614961 C198.029689,89.609336 204.427691,82.8416065 204.487741,73.115526 C204.528124,65.0359798 200.221708,59.082146 193.485629,57.2648051 L193.177081,57.2015041 C183.810296,55.2801938 177.453139,47.8322434 176.550127,37.3518551 C176.279064,34.1555064 176.617141,31.1377444 177.464279,28.4025385 C177.93992,26.7337251 178.196307,24.9200974 178.196307,22.9614784 C178.196307,13.1054363 171.898385,6.36352234 162.617003,6.36352234 L162.617003,6.36352234 Z M148.186311,74.7189165 L141.137971,74.7189165 L141.137971,88.9513942 L148.382934,88.9513942 C153.605092,88.9513942 156.607825,86.3896473 156.607825,81.997298 C156.607825,77.5379345 153.40847,74.7189165 148.186311,74.7189165 Z M146.753551,56.0942664 L141.137971,56.0942664 L141.137971,69.6703937 L146.556929,69.6703937 C151.058905,69.6703937 153.931676,66.9111404 153.931676,62.6529964 C153.931676,58.5216313 151.255704,56.0942664 146.753551,56.0942664 Z M110.43856,0 C119.259152,0 124.750606,4.70337309 124.880567,12.3488298 L118.868914,12.3488298 C118.541976,8.10253265 115.275961,5.42390863 110.375435,5.42390863 C105.797957,5.42390863 103.119156,7.70875777 103.119156,11.6318307 C103.119156,14.8973154 104.363782,16.3350269 108.673734,17.7727384 L115.536061,20.1873724 C122.461867,22.5390589 125.467605,26.1351943 125.467605,31.8823273 C125.467605,39.8548983 119.522966,45.2788069 110.832335,45.2788069 C104.557045,45.2788069 100.247093,43.057082 97.4344404,38.3538857 C95.996552,35.9355386 95.6733278,34.8245877 95.5394761,31.9491647 L101.945081,31.9491647 C102.14188,36.9161742 105.538034,39.8547215 110.962473,39.8547215 C115.796338,39.8547215 118.608814,37.3062359 118.608814,32.8000155 C118.608814,29.4006791 116.907112,27.0491694 113.641274,26.0052327 L104.95082,23.1929339 C101.618144,22.0821598 99.5932179,20.7781231 98.2852912,18.8166751 C97.0443787,16.9218876 96.3234895,14.4404163 96.3234895,12.0218923 C96.3234895,5.03013375 102.14188,0 110.43856,0 L110.43856,0 Z M196.74634,0.770398367 L221.847853,32.4444334 L221.847853,0.770398367 L227.913613,0.770398367 L227.913613,44.5114145 L223.023166,44.5114145 L197.528762,11.4613776 L197.528762,44.5114145 L191.462825,44.5114145 L191.462825,0.770398367 L196.74634,0.770398367 Z M136.594795,0.770398367 L136.594795,44.5114145 L130.07196,44.5114145 L130.07196,0.770398367 L136.594795,0.770398367 Z M254.378928,0.770398367 L270.887237,44.5114145 L263.810075,44.5114145 L260.010775,33.6936564 L241.405221,33.6936564 L237.803428,44.5114145 L230.599487,44.5114145 L247.238288,0.770398367 L254.378751,0.770398367 L254.378928,0.770398367 Z M292.757922,0.770398367 L292.757922,6.54281633 L282.161717,6.54281633 L282.161717,44.5114145 L275.714913,44.5114145 L275.714913,6.54281633 L265.51549,6.54281633 L265.51549,0.770398367 L292.757922,0.770398367 L292.757922,0.770398367 Z M250.709943,7.78832611 L243.371974,28.2492368 L258.111037,28.2492368 L250.709943,7.78832611 Z M77.4410379,0 C86.2614538,0 91.7529071,4.70337309 91.8830456,12.3488298 L85.8712153,12.3488298 C85.5444547,8.10253265 82.2784395,5.42390863 77.3777369,5.42390863 C72.8004354,5.42390863 70.1214578,7.70875777 70.1214578,11.6318307 C70.1214578,14.8973154 71.3662603,16.3350269 75.6762121,17.7727384 L82.5385395,20.1873724 C89.464168,22.5390589 92.4700831,26.1351943 92.4700831,31.8823273 C92.4700831,39.8548983 86.5254439,45.2788069 77.8348128,45.2788069 C71.5595229,45.2788069 67.2493943,43.057082 64.4369186,38.3538857 C62.9990303,35.9355386 62.6720928,34.8245877 62.5419543,31.9491647 L68.9473827,31.9491647 C69.1443585,36.9161742 72.5403353,39.8547215 77.9647744,39.8547215 C82.7986396,39.8547215 85.6112921,37.3062359 85.6112921,32.8000155 C85.6112921,29.4006791 83.9095905,27.0491694 80.6437521,26.0052327 L71.953121,23.1929339 C68.6204452,22.0821598 66.5955193,20.7781231 65.2877694,18.8166751 C64.0466801,16.9218876 63.3259677,14.4404163 63.3259677,12.0218923 C63.3259677,5.03013375 69.1443585,0 77.4410379,0 L77.4410379,0 Z M13.6383674,0.770398367 C18.4442953,0.770398367 21.433059,1.81822502 24.225731,4.50675088 C27.1515473,7.32965882 28.7770401,11.2636945 28.7770401,15.5930963 C28.7770401,24.4456932 22.3417295,30.6097643 13.1839438,30.6097643 L6.94454805,30.6097643 L6.94454805,44.5112376 L0.383696226,44.5112376 L0.383696226,0.770398367 L13.6383674,0.770398367 Z M46.4171647,0.770398367 L62.9256506,44.5114145 L55.8522018,44.5114145 L52.0529019,33.6936564 L33.4473481,33.6936564 L29.8455545,44.5114145 L22.6379005,44.5114145 L39.2767017,0.770398367 L46.4171647,0.770398367 L46.4171647,0.770398367 Z M42.74818,7.78832611 L35.4102107,28.2492368 L50.1494503,28.2492368 L42.74818,7.78832611 L42.74818,7.78832611 Z M13.7676218,6.21464113 L6.94454805,6.21464113 L6.94454805,25.1653447 L13.7676218,25.1653447 C18.9653795,25.1653447 22.4082132,21.4289922 22.4082132,15.8540805 C22.4082132,10.0181847 18.9653795,6.21464113 13.7676218,6.21464113 L13.7676218,6.21464113 Z M295.827315,0.770398367 L320,0.770398367 L320,6.54281633 L302.260327,6.54281633 L302.260327,19.788293 L319.674831,19.788293 L319.674831,25.5607109 L302.260327,25.5607109 L302.260327,38.7425329 L320,38.7425329 L320,44.5114145 L295.827315,44.5114145 L295.827315,0.770398367 Z M0,50.6503773 L12.400284,50.6503773 C17.2327346,50.6503773 20.1684528,51.6349029 22.5178407,53.9950767 C24.544358,56.0942664 25.7171953,58.9131075 25.7171953,61.9296317 C25.7171953,66.1281879 23.7612287,69.4727105 20.2352902,71.5683638 C25.7840327,73.4102826 28.3933439,76.751092 28.3933439,82.0607758 C28.3933439,85.9944578 26.9568701,89.1451874 24.0878125,91.505538 C21.474965,93.6680287 18.9956155,94.3913934 14.2931265,94.3913934 L0,94.3913934 L0,50.6503773 Z M6.46183344,69.6703937 L11.8804375,69.6703937 C16.3825911,69.6703937 19.2553619,66.9111404 19.2553619,62.6529964 C19.2553619,58.5216313 16.5792133,56.0942664 12.0735234,56.0942664 L6.46183344,56.0942664 L6.46183344,69.6703937 Z M6.46183344,88.9513942 L13.7067962,88.9513942 C18.928778,88.9513942 21.9315104,86.3896473 21.9315104,81.997298 C21.9315104,77.5379345 18.7321558,74.7189165 13.5099972,74.7189165 L6.46183344,74.7189165 L6.46183344,88.9513942 L6.46183344,88.9513942 Z M38.3314298,50.6503773 L38.3314298,78.2734996 C38.3314298,84.9501676 42.849497,89.5950137 49.4013311,89.5950137 C56.0836573,89.5950137 60.341094,85.1437839 60.341094,78.2733228 L60.341094,50.6503773 L66.7626128,50.6503773 L66.7626128,78.2733228 C66.7626128,83.6402958 65.3210113,87.1796725 61.7192177,90.5142933 C58.2477393,93.785613 54.4449031,95.1589626 49.2077148,95.1589626 C38.8565808,95.1589626 31.8464331,88.3519794 31.8464331,78.3368006 L31.8464331,50.6503773 L38.3314298,50.6503773 L38.3314298,50.6503773 Z M70.9830945,50.6503773 L77.4270693,50.6503773 L77.4270693,88.4890138 L92.8537794,88.4890138 L92.8537794,94.3913934 L70.9830945,94.3913934 L70.9830945,50.6503773 L70.9830945,50.6503773 Z" id="Shape"></path>
        </g>
    </g>
</svg>